<?xml version="1.0" encoding="UTF-8"?>
<svg width="94px" height="94px" viewBox="0 0 94 94" version="1.1" xmlns="http://www.w3.org/2000/svg" xmlns:xlink="http://www.w3.org/1999/xlink">
    
    <g id="Page-1" stroke="none" stroke-width="1" fill="none" fill-rule="evenodd">
        <g id="Oval" transform="translate(1.000000, 1.000000)">
            <circle stroke="#3c40c6" fill="#3c40c6" cx="46" cy="46" r="46"></circle>
            <g id="plus" transform="translate(22.000000, 22.000000)" fill="#FFFFFF">
                <path d="M47.46875,18.375 L30.625,18.375 L30.625,1.53125 C30.625,0.686 29.939,0 29.09375,0 L19.90625,0 C19.061,0 18.375,0.686 18.375,1.53125 L18.375,18.375 L1.53125,18.375 C0.686,18.375 0,19.061 0,19.90625 L0,29.09375 C0,29.939 0.686,30.625 1.53125,30.625 L18.375,30.625 L18.375,47.46875 C18.375,48.314 19.061,49 19.90625,49 L29.09375,49 C29.939,49 30.625,48.314 30.625,47.46875 L30.625,30.625 L47.46875,30.625 C48.314,30.625 49,29.939 49,29.09375 L49,19.90625 C49,19.061 48.314,18.375 47.46875,18.375 Z" id="Shape" fill-rule="nonzero"></path>
            </g>
        </g>
    </g>
</svg>